<?xml version="1.0" encoding="utf-8"?>
<!-- Generator: Adobe Illustrator 26.0.1, SVG Export Plug-In . SVG Version: 6.00 Build 0)  -->
<svg version="1.1" id="e06cb4b6-2a66-4350-80b5-fde9868b0617"
	 xmlns="http://www.w3.org/2000/svg" xmlns:xlink="http://www.w3.org/1999/xlink" x="0px" y="0px" viewBox="0 0 75 75"
	 style="enable-background:new 0 0 75 75;" xml:space="preserve">
<g>
	<path d="M4.4,75C1.8,75,0,72.8,0,70.7c0-17.7,0-35.3,0-53c0-2.7,1.3-4,4-4c11,0,22.1,0,33.1,0c1.9,0,3.2,0.9,3.7,2.5
		c0.5,1.9-0.7,3.9-2.7,4.2c-0.4,0.1-0.9,0.1-1.3,0.1c-9.6,0-19.3,0-28.9,0c-0.3,0-0.6,0-1,0c0,15.9,0,31.8,0,47.7
		c15.9,0,31.7,0,47.7,0c0-0.3,0-0.6,0-0.9c0-9.7,0-19.5,0-29.2c0-1.9,0.8-3.1,2.2-3.7c2.1-0.8,4.3,0.5,4.6,2.8c0.1,0.4,0,0.7,0,1.1
		c0,10.8,0,21.7,0,32.5c0,2.1-1.8,4.3-4,4.3C38.8,75,23,75,4.4,75z"/>
	<path d="M75,30.2c0,2.3-1.6,3.7-3.4,3.7c-1.8,0-3.4-1.2-3.4-3.5c0-5.7,0-12,0-17.8c0-0.3,0-0.6,0-1c-0.3,0.3-0.5,0.5-0.7,0.7
		c-11.3,11.3-22.6,22.6-34,34c-1,1-2.1,1.6-3.6,1.3c-2.4-0.6-3.4-3.5-1.9-5.4c0.2-0.3,0.5-0.6,0.8-0.9C40.1,30.1,51.3,18.9,62.6,7.6
		c0.2-0.2,0.2-0.2,0.8-0.8c-0.3,0-0.8,0-1.1,0c-5.8,0-11.6,0-17.4,0c-0.7,0-1.4-0.1-2-0.3c-1.4-0.6-2.2-2.1-1.9-3.6
		C41.3,1.3,42.5,0.2,44,0c0.3,0,0.6,0,0.9,0c8.6,0,17.2,0,25.8,0c2.1,0,4.3,1,4.3,4.1C75,13.6,75,20.7,75,30.2z"/>
</g>
</svg>
