<?xml version="1.0" encoding="utf-8"?>
<!-- Generator: Adobe Illustrator 26.0.1, SVG Export Plug-In . SVG Version: 6.00 Build 0)  -->
<svg version="1.1"
	 id="svg2" xmlns:cc="http://creativecommons.org/ns#" xmlns:dc="http://purl.org/dc/elements/1.1/" xmlns:inkscape="http://www.inkscape.org/namespaces/inkscape" xmlns:rdf="http://www.w3.org/1999/02/22-rdf-syntax-ns#" xmlns:sodipodi="http://sodipodi.sourceforge.net/DTD/sodipodi-0.dtd" xmlns:svg="http://www.w3.org/2000/svg"
	 xmlns="http://www.w3.org/2000/svg" xmlns:xlink="http://www.w3.org/1999/xlink" x="0px" y="0px" viewBox="0 0 204.3 204.3"
	 style="enable-background:new 0 0 204.3 204.3;" xml:space="preserve">
<style type="text/css">
	.st0{fill:#24E39D;}
	.st1{display:none;}
	.st2{display:inline;fill:none;stroke:#868686;stroke-width:0.4;stroke-miterlimit:10;stroke-dasharray:2;}
	.st3{display:inline;fill:none;stroke:#9C9B9B;stroke-width:0.25;stroke-miterlimit:10;stroke-dasharray:2;}
	.st4{display:inline;fill:none;stroke:#868686;stroke-width:0.2;stroke-miterlimit:10;stroke-dasharray:2;}
	.st5{display:inline;}
	.st6{fill:#6F6F6E;}
	.st7{fill:none;stroke:#6F6F6E;stroke-width:0.5;stroke-miterlimit:10;}
	.st8{display:inline;fill:#D9D9D9;}
</style>
<script  id="__gaOptOutExtension" xmlns=""></script>
<sodipodi:namedview  bordercolor="#666666" borderopacity="1" gridtolerance="10" guidetolerance="10" id="namedview170" inkscape:current-layer="svg2" inkscape:cx="167.1001" inkscape:cy="53.017888" inkscape:pageopacity="0" inkscape:pageshadow="2" inkscape:window-height="705" inkscape:window-maximized="1" inkscape:window-width="1366" inkscape:window-x="-8" inkscape:window-y="-8" inkscape:zoom="1" objecttolerance="10" pagecolor="#ffffff" showgrid="false">
	</sodipodi:namedview>
<polygon id="polygon8" class="st0" points="76,204.3 79.8,200.6 97.3,167.2 102.8,163.5 165.4,163.5 165.4,112.4 131,112.4 
	127.9,108.7 165.4,37.2 165.4,0 165.3,0 128.2,0 124.5,3.7 107,37.2 101.5,40.9 38.9,40.9 38.9,91.9 73.3,91.9 76.4,95.6 
	38.9,167.2 38.9,204.3 38.9,204.3 "/>
<g id="Construction" transform="translate(0,-191.65601)" class="st1">
	<line id="line35" class="st2" x1="264" y1="340.4" x2="411.8" y2="58.3"/>
	<line id="line37" class="st2" x1="492.2" y1="340.4" x2="640" y2="58.3"/>
	<line id="line39" class="st2" x1="578.5" y1="340.4" x2="726.2" y2="58.6"/>
	<line id="line41" class="st2" x1="815.8" y1="340.4" x2="963.6" y2="58.3"/>
	<line id="line43" class="st2" x1="149.8" y1="342.5" x2="298.7" y2="58.3"/>
	<line id="line45" class="st2" x1="91.5" y1="342.5" x2="240.3" y2="58.3"/>
	<line id="line47" class="st3" x1="106" y1="188.8" x2="960.6" y2="188.8"/>
	<line id="line49" class="st3" x1="106" y1="96.9" x2="960.6" y2="96.9"/>
	<line id="line51" class="st3" x1="106" y1="301.2" x2="960.6" y2="301.2"/>
	<line id="line53" class="st3" x1="106" y1="209.3" x2="960.6" y2="209.3"/>
	<line id="line55" class="st4" x1="393.4" y1="340.4" x2="326" y2="58.3"/>
	<line id="line57" class="st4" x1="578.5" y1="340.4" x2="511.6" y2="60.1"/>
	<line id="line59" class="st4" x1="793.4" y1="340.4" x2="726.1" y2="58.3"/>
</g>
<g id="Guidelines" transform="translate(0,-191.65601)" class="st1">
	<line id="line62" class="st3" x1="66" y1="188.8" x2="943.4" y2="188.8"/>
	<line id="line64" class="st3" x1="66" y1="137.8" x2="132.6" y2="137.8"/>
	<line id="line66" class="st3" x1="259" y1="96.9" x2="259" y2="364.5"/>
	<line id="line68" class="st3" x1="284.5" y1="96.9" x2="284.5" y2="364.5"/>
	<g id="g70" class="st5">
		<path id="path72" inkscape:connector-curvature="0" class="st6" d="M38.6,163.6l3.7,5.7h-3.2l-2.2-3.4l-2.2,3.4h-3.2l3.7-5.7
			l-3.5-5.4h3.2l2,3.2l2.1-3.2h3.1C42.2,158.2,38.6,163.6,38.6,163.6z"/>
	</g>
	<g id="g74" class="st5">
		<g id="g76">
			<line id="line78" class="st7" x1="51.7" y1="139" x2="51.7" y2="187.8"/>
			<g id="g80">
				<circle id="circle82" class="st6" cx="51.7" cy="139.1" r="1.3"/>
			</g>
			<g id="g84">
				<circle id="circle86" class="st6" cx="51.7" cy="187.7" r="1.3"/>
			</g>
		</g>
	</g>
	<g id="g88" class="st5">
		<path id="path90" inkscape:connector-curvature="0" class="st6" d="M254.6,386c0-3.4,1.9-5.7,4.6-5.7s4.6,2.3,4.6,5.7
			s-1.9,5.7-4.6,5.7S254.6,389.4,254.6,386z M257.4,386c0,1.7,0.5,3.2,1.8,3.2c1.3,0,1.8-1.5,1.8-3.2s-0.5-3.2-1.8-3.2
			C257.9,382.8,257.4,384.3,257.4,386z"/>
		<path id="path92" inkscape:connector-curvature="0" class="st6" d="M265.7,388.3c0.9,0,1.7,0.7,1.7,1.7s-0.7,1.7-1.7,1.7
			c-0.9,0-1.7-0.7-1.7-1.7C264.1,389,264.8,388.3,265.7,388.3z"/>
		<path id="path94" inkscape:connector-curvature="0" class="st6" d="M271,387.1h-2.3v-6.6h6.8v2.5H271v1.7c0.3-0.2,1-0.4,1.7-0.4
			c2.2,0,3.6,1.5,3.6,3.7c0,2.3-1.6,3.8-4,3.8c-2.5,0-4.1-1.5-4.2-3.7h2.8c0.1,0.8,0.6,1.3,1.4,1.3s1.3-0.6,1.3-1.4
			s-0.5-1.4-1.3-1.4C271.7,386.5,271.3,386.8,271,387.1L271,387.1z"/>
		<path id="path96" inkscape:connector-curvature="0" class="st6" d="M287.4,385.9l3.7,5.7h-3.2l-2.2-3.4l-2.2,3.4h-3.2l3.7-5.7
			l-3.5-5.4h3.2l2,3.1l2.1-3.1h3.1L287.4,385.9L287.4,385.9z"/>
	</g>
	<g id="g98" class="st5">
		<g id="g100">
			<line id="line102" class="st7" x1="260.2" y1="368.8" x2="284" y2="368.8"/>
			<g id="g104">
				<circle id="circle106" class="st6" cx="260.3" cy="368.8" r="1.3"/>
			</g>
			<g id="g108">
				<circle id="circle110" class="st6" cx="284" cy="368.8" r="1.3"/>
			</g>
		</g>
	</g>
	<g id="g112" class="st5">
		<g id="g114">
			<line id="line116" class="st7" x1="77" y1="47" x2="77" y2="95.8"/>
			<g id="g118">
				<circle id="circle120" class="st6" cx="77" cy="47.1" r="1.3"/>
			</g>
			<g id="g122">
				<circle id="circle124" class="st6" cx="77" cy="95.7" r="1.3"/>
			</g>
		</g>
	</g>
	<g id="g126" class="st5">
		<path id="path128" inkscape:connector-curvature="0" class="st6" d="M109,29.2l3.7,5.7h-3.2l-2.2-3.4l-2.2,3.4h-3.2l3.7-5.7
			l-3.5-5.4h3.2l2,3.2l2.1-3.2h3.1C112.5,23.8,109,29.2,109,29.2z"/>
	</g>
	<g id="g130" class="st5">
		<path id="path132" inkscape:connector-curvature="0" class="st6" d="M65.5,70.3l3.7,5.7H66l-2.2-3.4L61.6,76h-3.2l3.7-5.7
			l-3.5-5.4h3.2l2,3.2l2.1-3.2H69C69,64.9,65.5,70.3,65.5,70.3z"/>
	</g>
	<g id="g134" class="st5">
		<g id="g136">
			<line id="line138" class="st7" x1="131.4" y1="41.5" x2="82.7" y2="41.5"/>
			<g id="g140">
				<circle id="circle142" class="st6" cx="131.4" cy="41.5" r="1.3"/>
			</g>
			<g id="g144">
				<circle id="circle146" class="st6" cx="82.8" cy="41.5" r="1.3"/>
			</g>
		</g>
	</g>
	<rect id="rect148" x="55.7" y="137.9" class="st8" width="8.1" height="51"/>
	<rect id="rect150" x="132.6" y="45.9" class="st8" width="8.1" height="51"/>
	<rect id="rect152" x="935.2" y="45.9" class="st8" width="8.1" height="51"/>
	<rect id="rect154" x="132.6" y="301.2" class="st8" width="8.1" height="51"/>
	<rect id="rect156" x="935.2" y="301.2" class="st8" width="8.1" height="51"/>
	<rect id="rect158" x="81.6" y="96.9" class="st8" width="51" height="8.1"/>
	<rect id="rect160" x="81.6" y="293.1" class="st8" width="51" height="8.1"/>
	<rect id="rect162" x="943.4" y="96.9" class="st8" width="51" height="8.1"/>
	<rect id="rect164" x="943.4" y="293.1" class="st8" width="51" height="8.1"/>
	<rect id="rect166" x="132.6" y="96.9" class="st3" width="810.8" height="204.3"/>
	<rect id="rect168" x="81.6" y="45.9" class="st3" width="912.8" height="306.4"/>
</g>
</svg>
