<?xml version="1.0" encoding="utf-8"?>
<!-- Generator: Adobe Illustrator 26.0.1, SVG Export Plug-In . SVG Version: 6.00 Build 0)  -->
<svg version="1.1" id="e06cb4b6-2a66-4350-80b5-fde9868b0617"
	 xmlns="http://www.w3.org/2000/svg" xmlns:xlink="http://www.w3.org/1999/xlink" x="0px" y="0px" viewBox="0 0 75 99.9"
	 style="enable-background:new 0 0 75 99.9;" xml:space="preserve">
<g>
	<path d="M65.5,99.9H6.3c-4.6,0-6.3-3.3-6.3-6.3C0.1,69.8,0,44,0,20.2c0-4.5,0-9,0-13.5c0-2.7,1.3-4.8,3.8-6
		c0.7-0.3,1.4-0.5,2.1-0.8h37c1.4,0,2.7,0.5,3.6,1.5c9.1,9.1,18.1,18.1,27.2,27.2c0.9,0.8,1.3,2,1.3,3.1c0,18.4,0,36.7,0,55.1
		c0,2.1,0,4.7,0,6.9c0,3.4-3,6.3-6.3,6.3C67.1,99.9,66,99.9,65.5,99.9z M6.3,49.8c0,14.2,0,28.4,0,42.6c0,1.2,0,1.3,1.2,1.3
		c20,0,39.9,0,59.9,0c1.2,0,1.3,0,1.3-1.2c0-19,0-38.1,0-57.1c0-0.8-0.3-1-1-1c-6.6,0-13.2,0-19.8,0c-4.4,0-7.3-2.8-7.3-7.2
		c0-6.6,0-13.2,0-19.8c0-0.8-0.2-1.1-1.1-1.1c-10.6,0-21.2,0-31.8,0c-1.5,0-1.5,0-1.5,1.4C6.3,21.7,6.3,35.7,6.3,49.8z M46.9,19.3
		c0,2.6,0,5.1,0,7.7c0,0.7,0.2,1,1,1c5.2,0,15.4,0,16.2,0c-0.6-0.7-16.5-16.7-17.1-17.3c0,0.5,0,0.5,0,0.7
		C46.9,14.1,46.9,16.7,46.9,19.3z"/>
	<path d="M41.7,51.1c0,3,0,6,0,9.1c0,0.2,0,0.6,0,0.8c0.2-0.1,0.5-0.4,0.6-0.5c1.1-1.1,2.2-2.2,3.2-3.2c1.4-1.4,3.3-1.4,4.6-0.1
		c1.2,1.3,1.2,3.2-0.1,4.5c-3,3-6.1,6.1-9.1,9.1c-1.5,1.4-3.2,1.5-4.7,0c-3.1-3.1-6.2-6.1-9.2-9.2c-1.2-1.2-1.3-3.1-0.1-4.4
		c0,0,0.1-0.1,0.1-0.1c1.2-1.2,3.1-1.2,4.5,0.1c1.1,1.1,2.2,2.2,3.3,3.3c0.2,0.2,0.5,0.5,0.6,0.6c0-0.3,0-0.7,0-0.9
		c0-5.9,0-11.8,0-17.8c0-1.4,0.5-2.5,1.8-3.1c1.5-0.8,3.4-0.1,4.2,1.4c0.2,0.4,0.3,0.9,0.3,1.4C41.7,45.1,41.7,48.1,41.7,51.1z"/>
	<path d="M38.5,84.3c-5.1,0-10.3,0-15.4,0c-2.4,0-3.9-2.3-3-4.4c0.5-1.2,1.7-1.9,2.9-1.9c2.4,0,4.7,0,7.1,0c7.8,0,15.6,0,23.4,0
		c0.5,0,0.9,0,1.4,0.1c1.7,0.4,2.7,2.1,2.3,3.7c-0.3,1.4-1.6,2.5-3.1,2.4C48.9,84.3,43.7,84.3,38.5,84.3z"/>
</g>
</svg>
