<svg xmlns="http://www.w3.org/2000/svg" width="1em" height="1em" viewBox="0 0 512 439.12"><title>photo</title><path d="M231.9,235.12A51.15,51.15,0,1,0,180.75,184,51.21,51.21,0,0,0,231.9,235.12Zm0-72.3A21.15,21.15,0,1,1,210.75,184,21.17,21.17,0,0,1,231.9,162.82Z" transform="translate(0 -37)"/><path d="M493.3,37H18.7A18.72,18.72,0,0,0,0,55.7V457.42a18.72,18.72,0,0,0,18.7,18.7H493.3a18.72,18.72,0,0,0,18.7-18.7V55.7A18.72,18.72,0,0,0,493.3,37ZM482,67V304.41l-94.35-94.36a15.8,15.8,0,0,0-22.31,0L231.9,343.5l-85.24-85.23a15.78,15.78,0,0,0-22.32,0L30,352.61V67ZM30,446.12V395l105.5-105.5,85.23,85.24a15.76,15.76,0,0,0,22.32,0L376.5,241.33,482,346.83v99.29Z" transform="translate(0 -37)"/></svg>