<?xml version="1.0" encoding="utf-8"?>
<!-- Generator: Adobe Illustrator 24.0.2, SVG Export Plug-In . SVG Version: 6.00 Build 0)  -->
<svg version="1.1" id="Layer_1" xmlns="http://www.w3.org/2000/svg" xmlns:xlink="http://www.w3.org/1999/xlink" x="0px" y="0px"
	 viewBox="0 0 24 24" style="enable-background:new 0 0 24 24;" xml:space="preserve">
<path d="M19.9,4.4c0,0.4-0.1,0.8-0.4,1.2l-1.8,1.8l-1.2-1l2.9-2.8C19.7,3.6,19.9,4,19.9,4.4z M19.2,11.2h4.1c0,0.4-0.1,0.8-0.5,1.2
	c-0.4,0.4-0.6,0.5-1,0.5h-2.6C19.2,12.9,19.2,11.2,19.2,11.2z M11.2,4.7V0.6c0.4,0,0.8,0.1,1.2,0.5s0.5,0.6,0.5,1v2.6
	C12.9,4.7,11.2,4.7,11.2,4.7z M19.5,19.9c-0.4,0-0.8-0.1-1-0.4l-1.8-1.8l1-1l2.9,2.8C20.2,19.8,19.9,19.9,19.5,19.9z M4.4,4.1
	c0.4,0,0.8,0.1,1,0.4l1.8,1.8l-1,1.2l-2.8-3C3.7,4.2,4,4.1,4.4,4.1z M11.2,19.3h1.6v4.1c-0.4,0-0.8-0.1-1.2-0.5s-0.5-0.6-0.5-1
	C11,21.8,11.2,19.3,11.2,19.3z M2.1,11.2h2.6v1.6H0.5c0-0.4,0.1-0.8,0.5-1.2C1.5,11.2,1.7,11.2,2.1,11.2z M4.4,18.5l1.8-1.8l1,1
	l-2.8,2.9c-0.3-0.3-0.4-0.6-0.4-1C4,19.1,4.2,18.7,4.4,18.5z"/>
<circle cx="11.9" cy="12" r="5.2"/>
</svg>
